<?xml version="1.0" standalone="no"?>
<!DOCTYPE svg PUBLIC "-//W3C//DTD SVG 20010904//EN"
 "http://www.w3.org/TR/2001/REC-SVG-20010904/DTD/svg10.dtd">
<svg version="1.0" xmlns="http://www.w3.org/2000/svg"
 width="96.000000pt" height="96.000000pt" viewBox="0 0 96.000000 96.000000"
 preserveAspectRatio="xMidYMid meet">

<g transform="translate(0.000000,96.000000) scale(0.100000,-0.100000)"
fill="#4858FF" stroke="none">
<!-- <path d="M410 949 c-90 -11 -190 -63 -263 -136 -187 -186 -187 -478 -1 -666
143 -144 356 -181 538 -93 294 142 360 531 129 760 -65 64 -171 121 -243 131
-86 11 -95 12 -160 4z m254 -88 c85 -43 154 -113 197 -198 33 -65 34 -71 34
-183 0 -112 -1 -118 -34 -183 -43 -86 -112 -155 -198 -198 -65 -33 -71 -34
-183 -34 -112 0 -118 1 -183 34 -86 43 -155 112 -198 198 -33 65 -34 71 -34
182 0 111 1 119 33 182 54 107 135 179 247 221 39 14 72 18 151 15 92 -2 107
-5 168 -36z"/> -->
<path d="M524 764 c-35 -53 21 -113 80 -86 58 26 36 112 -29 112 -26 0 -39 -6
-51 -26z"/>
<path d="M374 726 c-35 -16 -44 -32 -44 -82 0 -32 -2 -35 -22 -28 -54 19 -107
-1 -137 -50 -57 -93 -23 -227 64 -256 30 -10 41 -9 75 8 31 15 40 16 40 6 0
-10 13 -14 45 -14 l45 0 0 215 c0 239 3 231 -66 201z m-60 -192 c23 -9 23
-129 0 -138 -54 -21 -85 92 -36 132 18 14 16 14 36 6z"/>
<path d="M520 461 c0 -173 -6 -204 -48 -238 l-27 -23 53 0 c111 0 125 28 130
253 l4 167 -56 0 -56 0 0 -159z"/>
<path d="M712 423 c-31 -28 -35 -56 -11 -86 25 -32 61 -35 89 -7 28 28 25 64
-6 89 -32 26 -46 26 -72 4z"/>
</g>
</svg>
