<svg width="69" height="24" viewBox="0 0 69 24" fill="none" xmlns="http://www.w3.org/2000/svg">
<path d="M0 24V0H10.2451C12.6132 0 14.7943 0.448921 16.7885 1.34676C18.7826 2.22158 20.4278 3.59137 21.724 5.45612C23.0203 7.32086 23.6684 9.50791 23.6684 12.0173C23.6684 14.5266 23.0203 16.7137 21.724 18.5784C20.4278 20.4201 18.7826 21.7899 16.7885 22.6878C14.7943 23.5626 12.6132 24 10.2451 24H0ZM5.57123 19.3036H9.64682C11.99 19.3036 13.9468 18.7165 15.5172 17.5424C17.0876 16.3453 17.8728 14.4921 17.8728 11.9827C17.8728 9.4964 17.0876 7.66619 15.5172 6.49209C13.9468 5.29496 11.99 4.6964 9.64682 4.6964H5.57123V19.3036Z" fill="white"/>
<path d="M27.8605 24V0H46.5559V4.45468H33.4317V9.66907H44.1629V14.1237H33.4317V19.5453H46.7428V24H27.8605Z" fill="white"/>
<path d="M50.8281 24V0H69V4.6964H56.3993V10.2561H66.6818V14.9525H56.3993V24H50.8281Z" fill="white"/>
<path d="M14.4531 12C14.4531 13.639 13.0145 14.9676 11.2398 14.9676C9.46519 14.9676 8.02656 13.639 8.02656 12C8.02656 10.361 9.46519 9.03237 11.2398 9.03237C13.0145 9.03237 14.4531 10.361 14.4531 12Z" fill="#FF7676"/>
</svg>
